<?xml version="1.0" encoding="UTF-8" standalone="no"?>
<!-- Created with Inkscape (http://www.inkscape.org/) -->

<svg
   width="67.733337mm"
   height="67.73333mm"
   viewBox="0 0 67.733337 67.73333"
   version="1.1"
   id="svg8"
   inkscape:version="1.3.1 (1:1.3.1+202311172155+91b66b0783)"
   sodipodi:docname="favicon.svg"
   xml:space="preserve"
   inkscape:export-filename="./favicon_256.png"
   inkscape:export-xdpi="96"
   inkscape:export-ydpi="96"
   xmlns:inkscape="http://www.inkscape.org/namespaces/inkscape"
   xmlns:sodipodi="http://sodipodi.sourceforge.net/DTD/sodipodi-0.dtd"
   xmlns="http://www.w3.org/2000/svg"
   xmlns:svg="http://www.w3.org/2000/svg"
   xmlns:rdf="http://www.w3.org/1999/02/22-rdf-syntax-ns#"
   xmlns:cc="http://creativecommons.org/ns#"
   xmlns:dc="http://purl.org/dc/elements/1.1/"><defs
     id="defs2" /><sodipodi:namedview
     id="base"
     pagecolor="#d2d2d2"
     bordercolor="#666666"
     borderopacity="1.0"
     inkscape:pageopacity="0"
     inkscape:pageshadow="2"
     inkscape:zoom="0.81533302"
     inkscape:cx="64.390867"
     inkscape:cy="69.910084"
     inkscape:document-units="mm"
     inkscape:current-layer="g6889"
     showgrid="false"
     inkscape:window-width="1366"
     inkscape:window-height="741"
     inkscape:window-x="0"
     inkscape:window-y="0"
     inkscape:window-maximized="1"
     inkscape:showpageshadow="2"
     inkscape:pagecheckerboard="0"
     inkscape:deskcolor="#d2d2d2"
     showguides="true" /><metadata
     id="metadata5"><rdf:RDF><cc:Work
         rdf:about=""><dc:format>image/svg+xml</dc:format><dc:type
           rdf:resource="http://purl.org/dc/dcmitype/StillImage" /><dc:title /></cc:Work></rdf:RDF></metadata><g
     inkscape:label="Capa 1"
     inkscape:groupmode="layer"
     id="layer1"
     transform="translate(-101.17371,-84.471566)"><g
       id="g6889"
       transform="translate(0.01165904,-0.498517)"><g
         id="g4"
         style="fill:#161616;fill-opacity:1"><rect
           style="fill:#161616;fill-opacity:1;stroke-width:0.430845;-inkscape-stroke:none;paint-order:markers fill stroke"
           id="rect1"
           width="67.733345"
           height="67.733322"
           x="101.16205"
           y="84.970085"
           ry="4.6305871" /></g><g
         id="g6"
         transform="matrix(0.64181977,0,0,0.80728619,41.916151,22.901483)"
         style="fill:none;fill-opacity:1;stroke:none"><path
           id="rect6"
           style="opacity:1;vector-effect:none;fill:#323239;stroke-width:0.59855;paint-order:markers fill stroke;stop-color:#000000;stop-opacity:1"
           d="m 99.803646,80.464399 h 70.955764 c 1.93758,0 3.49744,1.55986 3.49744,3.497444 v 69.548817 c 0,1.93759 -1.55986,3.49745 -3.49744,3.49745 H 99.803646 c -1.937584,0 -3.497444,-1.55986 -3.497444,-3.49745 V 83.961843 c 0,-1.937584 1.55986,-3.497444 3.497444,-3.497444 z"
           sodipodi:nodetypes="sssssssss" /></g><g
         id="g7"
         transform="matrix(0.64181977,0,0,0.80728619,93.745174,22.901483)"
         style="fill:none;fill-opacity:1;stroke:none"><path
           id="rect7"
           style="font-variation-settings:normal;opacity:1;vector-effect:none;fill:#323239;fill-opacity:1;stroke:none;stroke-width:0.59855;stroke-linecap:butt;stroke-linejoin:miter;stroke-miterlimit:4;stroke-dasharray:none;stroke-dashoffset:0;stroke-opacity:1;-inkscape-stroke:none;paint-order:markers fill stroke;stop-color:#000000;stop-opacity:1"
           d="m 99.550843,80.464399 h 9.944347 c 1.93758,0 3.49744,1.55986 3.49744,3.497444 v 69.548817 c 0,1.93759 -1.55986,3.49745 -3.49744,3.49745 h -9.944347 c -1.937585,0 -3.497445,-1.55986 -3.497445,-3.49745 V 83.961843 c 0,-1.937584 1.55986,-3.497444 3.497445,-3.497444 z"
           sodipodi:nodetypes="sssssssss" /></g><path
         style="font-weight:bold;font-size:31.5357px;line-height:80%;font-family:'Fira Mono';-inkscape-font-specification:'Fira Mono Bold';font-variation-settings:normal;letter-spacing:0px;word-spacing:0px;opacity:1;vector-effect:none;fill:#c4006a;fill-opacity:1;stroke-width:0.555284;stroke-linecap:butt;stroke-linejoin:miter;stroke-miterlimit:4;stroke-dasharray:none;stroke-dashoffset:0;stroke-opacity:1;-inkscape-stroke:none;paint-order:markers fill stroke;stop-color:#000000;stop-opacity:1"
         d="m 152.05916,132.64136 q 0,14.22541 -13.61576,14.22541 h -7.60043 v -28.1663 h 7.1127 q 6.38111,0 10.2423,3.00765 3.86119,2.96699 3.86119,10.93324 z m -6.86886,0 q 0,-5.24309 -1.62576,-7.15335 -1.62575,-1.95092 -4.63341,-1.95092 h -1.42253 v 18.49304 h 1.42253 q 3.0483,0 4.63341,-2.07284 1.62576,-2.1135 1.62576,-7.31593 z"
         id="path6" /><path
         style="font-weight:bold;font-size:31.5357px;line-height:80%;font-family:'Fira Mono';-inkscape-font-specification:'Fira Mono Bold';font-variation-settings:normal;letter-spacing:0px;word-spacing:0px;opacity:1;vector-effect:none;fill:#d3a600;fill-opacity:1;stroke-width:0.555284;stroke-linecap:butt;stroke-linejoin:miter;stroke-miterlimit:4;stroke-dasharray:none;stroke-dashoffset:0;stroke-opacity:1;-inkscape-stroke:none;paint-order:markers fill stroke;stop-color:#000000;stop-opacity:1"
         d="m 123.9537,118.70047 h 6.8282 l -8.1288,28.1663 h -8.21008 l -8.08818,-28.1663 h 7.07206 l 5.24308,22.96387 z"
         id="text1" /><path
         style="font-weight:bold;font-size:31.5357px;line-height:80%;font-family:'Fira Mono';-inkscape-font-specification:'Fira Mono Bold';font-variation-settings:normal;letter-spacing:0px;word-spacing:0px;baseline-shift:baseline;opacity:1;vector-effect:none;fill:#0cb3b6;fill-opacity:1;stroke-width:0.555284;stroke-linecap:butt;stroke-linejoin:miter;stroke-miterlimit:4;stroke-dasharray:none;stroke-dashoffset:0;stroke-opacity:1;-inkscape-stroke:none;paint-order:markers fill stroke;stop-color:#000000;stop-opacity:1"
         d="m 135.8319,89.903608 q 2.92637,0 5.03987,0.772237 2.11348,0.772235 3.98309,2.316708 l -3.2515,3.942473 q -2.56057,-2.072854 -5.60888,-2.072854 -2.88572,0 -4.67406,2.43865 -1.7477,2.438645 -1.7477,7.356558 0,4.91793 1.7477,7.31593 1.74768,2.35734 4.79599,2.35734 1.86962,0 3.21088,-0.65031 1.34125,-0.6503 2.88572,-1.86962 l 3.00768,3.86117 q -3.73926,3.82055 -9.47007,3.82055 -3.86118,0 -6.82821,-1.70705 -2.92636,-1.70706 -4.59276,-5.03986 -1.6664,-3.37345 -1.6664,-8.08815 0,-4.59277 1.70703,-7.925583 1.70706,-3.332805 4.71471,-5.080496 3.00765,-1.747693 6.74691,-1.747693 z"
         id="path5" /><path
         style="font-weight:bold;font-size:31.5357px;line-height:80%;font-family:'Fira Mono';-inkscape-font-specification:'Fira Mono Bold';font-variation-settings:normal;letter-spacing:0px;word-spacing:0px;baseline-shift:baseline;opacity:1;vector-effect:none;fill:#42bb00;fill-opacity:1;stroke-width:0.555284;stroke-linecap:butt;stroke-linejoin:miter;stroke-miterlimit:4;stroke-dasharray:none;stroke-dashoffset:0;stroke-opacity:1;-inkscape-stroke:none;paint-order:markers fill stroke;stop-color:#000000;stop-opacity:1"
         d="m 106.31597,90.6352 h 6.66563 v 22.88257 h 12.1932 l -0.65031,5.28372 h -18.20852 z"
         id="text4" /></g></g></svg>
